<mxfile host="app.diagrams.net" agent="Mozilla/5.0 (Windows NT 10.0; Win64; x64) AppleWebKit/537.36 (KHTML, like Gecko) Chrome/128.0.0.0 Safari/537.36" version="24.7.16">
  <diagram id="lntqSYc9QW3-Y_v6heJf" name="Page-1">
    <mxGraphModel dx="1326" dy="837" grid="0" gridSize="10" guides="1" tooltips="1" connect="1" arrows="1" fold="1" page="0" pageScale="1" pageWidth="827" pageHeight="1169" math="0" shadow="0">
      <root>
        <mxCell id="0" />
        <mxCell id="1" parent="0" />
        <mxCell id="gX8lP8oXlxVexuRxcrJK-1" value="Property Manager" style="swimlane;whiteSpace=wrap;html=1;" parent="1" vertex="1">
          <mxGeometry x="-174" y="-141" width="264" height="540" as="geometry" />
        </mxCell>
        <mxCell id="gX8lP8oXlxVexuRxcrJK-2" style="edgeStyle=none;curved=1;rounded=0;orthogonalLoop=1;jettySize=auto;html=1;fontSize=12;startSize=8;endSize=8;" parent="gX8lP8oXlxVexuRxcrJK-1" source="gX8lP8oXlxVexuRxcrJK-3" edge="1">
          <mxGeometry relative="1" as="geometry">
            <mxPoint x="132" y="113" as="targetPoint" />
          </mxGeometry>
        </mxCell>
        <mxCell id="gX8lP8oXlxVexuRxcrJK-3" value="Click &#39;Create Request&#39; Btn" style="html=1;align=center;verticalAlign=top;rounded=1;absoluteArcSize=1;arcSize=10;dashed=0;whiteSpace=wrap;" parent="gX8lP8oXlxVexuRxcrJK-1" vertex="1">
          <mxGeometry x="62" y="50" width="140" height="40" as="geometry" />
        </mxCell>
        <mxCell id="gX8lP8oXlxVexuRxcrJK-4" style="edgeStyle=none;curved=1;rounded=0;orthogonalLoop=1;jettySize=auto;html=1;entryX=0.5;entryY=0;entryDx=0;entryDy=0;fontSize=12;startSize=8;endSize=8;" parent="gX8lP8oXlxVexuRxcrJK-1" edge="1">
          <mxGeometry relative="1" as="geometry">
            <mxPoint x="132" y="202" as="targetPoint" />
          </mxGeometry>
        </mxCell>
        <mxCell id="gX8lP8oXlxVexuRxcrJK-7" style="edgeStyle=none;curved=1;rounded=0;orthogonalLoop=1;jettySize=auto;html=1;entryX=0.5;entryY=0;entryDx=0;entryDy=0;fontSize=12;startSize=8;endSize=8;" parent="gX8lP8oXlxVexuRxcrJK-1" edge="1">
          <mxGeometry relative="1" as="geometry">
            <Array as="points">
              <mxPoint x="328" y="155" />
            </Array>
            <mxPoint x="148.94736842105272" y="218.94736842105272" as="sourcePoint" />
          </mxGeometry>
        </mxCell>
        <mxCell id="gX8lP8oXlxVexuRxcrJK-8" value="No" style="edgeLabel;html=1;align=center;verticalAlign=middle;resizable=0;points=[];fontSize=12;" parent="gX8lP8oXlxVexuRxcrJK-7" vertex="1" connectable="0">
          <mxGeometry x="-0.4746" y="24" relative="1" as="geometry">
            <mxPoint as="offset" />
          </mxGeometry>
        </mxCell>
        <mxCell id="gX8lP8oXlxVexuRxcrJK-17" value="" style="edgeStyle=none;curved=1;rounded=0;orthogonalLoop=1;jettySize=auto;html=1;fontSize=12;startSize=8;endSize=8;entryX=0.957;entryY=0.435;entryDx=0;entryDy=0;entryPerimeter=0;" parent="gX8lP8oXlxVexuRxcrJK-1" target="gX8lP8oXlxVexuRxcrJK-15" edge="1">
          <mxGeometry relative="1" as="geometry">
            <mxPoint x="-56" y="323.74" as="targetPoint" />
            <mxPoint x="64" y="353" as="sourcePoint" />
          </mxGeometry>
        </mxCell>
        <mxCell id="gX8lP8oXlxVexuRxcrJK-30" style="edgeStyle=none;curved=1;rounded=0;orthogonalLoop=1;jettySize=auto;html=1;fontSize=12;startSize=8;endSize=8;" parent="gX8lP8oXlxVexuRxcrJK-1" source="gX8lP8oXlxVexuRxcrJK-18" target="gX8lP8oXlxVexuRxcrJK-20" edge="1">
          <mxGeometry relative="1" as="geometry" />
        </mxCell>
        <mxCell id="gX8lP8oXlxVexuRxcrJK-18" value="Enter Property Into Field" style="html=1;align=center;verticalAlign=top;rounded=1;absoluteArcSize=1;arcSize=10;dashed=0;whiteSpace=wrap;" parent="gX8lP8oXlxVexuRxcrJK-1" vertex="1">
          <mxGeometry x="62" y="116" width="140" height="40" as="geometry" />
        </mxCell>
        <mxCell id="gX8lP8oXlxVexuRxcrJK-25" style="edgeStyle=none;curved=1;rounded=0;orthogonalLoop=1;jettySize=auto;html=1;entryX=1.001;entryY=0.433;entryDx=0;entryDy=0;fontSize=12;startSize=8;endSize=8;entryPerimeter=0;" parent="gX8lP8oXlxVexuRxcrJK-1" source="gX8lP8oXlxVexuRxcrJK-19" target="gX8lP8oXlxVexuRxcrJK-18" edge="1">
          <mxGeometry relative="1" as="geometry">
            <Array as="points">
              <mxPoint x="283" y="268" />
            </Array>
          </mxGeometry>
        </mxCell>
        <mxCell id="gX8lP8oXlxVexuRxcrJK-26" value="Yes" style="edgeLabel;html=1;align=center;verticalAlign=middle;resizable=0;points=[];fontSize=12;" parent="gX8lP8oXlxVexuRxcrJK-25" vertex="1" connectable="0">
          <mxGeometry x="-0.368" y="14" relative="1" as="geometry">
            <mxPoint as="offset" />
          </mxGeometry>
        </mxCell>
        <mxCell id="gX8lP8oXlxVexuRxcrJK-28" style="edgeStyle=none;curved=1;rounded=0;orthogonalLoop=1;jettySize=auto;html=1;entryX=0.5;entryY=0;entryDx=0;entryDy=0;fontSize=12;startSize=8;endSize=8;" parent="gX8lP8oXlxVexuRxcrJK-1" source="gX8lP8oXlxVexuRxcrJK-19" target="gX8lP8oXlxVexuRxcrJK-27" edge="1">
          <mxGeometry relative="1" as="geometry" />
        </mxCell>
        <mxCell id="gX8lP8oXlxVexuRxcrJK-29" value="No" style="edgeLabel;html=1;align=center;verticalAlign=middle;resizable=0;points=[];fontSize=12;" parent="gX8lP8oXlxVexuRxcrJK-28" vertex="1" connectable="0">
          <mxGeometry x="-0.0256" y="-3" relative="1" as="geometry">
            <mxPoint as="offset" />
          </mxGeometry>
        </mxCell>
        <mxCell id="gX8lP8oXlxVexuRxcrJK-19" value="" style="rhombus;whiteSpace=wrap;html=1;" parent="gX8lP8oXlxVexuRxcrJK-1" vertex="1">
          <mxGeometry x="114" y="254" width="36" height="36" as="geometry" />
        </mxCell>
        <mxCell id="gX8lP8oXlxVexuRxcrJK-21" style="edgeStyle=none;curved=1;rounded=0;orthogonalLoop=1;jettySize=auto;html=1;entryX=0.5;entryY=0;entryDx=0;entryDy=0;fontSize=12;startSize=8;endSize=8;" parent="gX8lP8oXlxVexuRxcrJK-1" source="gX8lP8oXlxVexuRxcrJK-20" target="gX8lP8oXlxVexuRxcrJK-19" edge="1">
          <mxGeometry relative="1" as="geometry" />
        </mxCell>
        <mxCell id="gX8lP8oXlxVexuRxcrJK-22" value="If property field is empty" style="edgeLabel;html=1;align=center;verticalAlign=middle;resizable=0;points=[];fontSize=12;" parent="gX8lP8oXlxVexuRxcrJK-21" vertex="1" connectable="0">
          <mxGeometry x="-0.3105" y="-3" relative="1" as="geometry">
            <mxPoint as="offset" />
          </mxGeometry>
        </mxCell>
        <mxCell id="gX8lP8oXlxVexuRxcrJK-20" value="Submit Form" style="html=1;align=center;verticalAlign=top;rounded=1;absoluteArcSize=1;arcSize=10;dashed=0;whiteSpace=wrap;" parent="gX8lP8oXlxVexuRxcrJK-1" vertex="1">
          <mxGeometry x="62" y="175" width="140" height="40" as="geometry" />
        </mxCell>
        <mxCell id="gX8lP8oXlxVexuRxcrJK-27" value="View new request in detail page" style="html=1;align=center;verticalAlign=top;rounded=1;absoluteArcSize=1;arcSize=10;dashed=0;whiteSpace=wrap;" parent="gX8lP8oXlxVexuRxcrJK-1" vertex="1">
          <mxGeometry x="66" y="334" width="140" height="40" as="geometry" />
        </mxCell>
        <mxCell id="gX8lP8oXlxVexuRxcrJK-13" style="edgeStyle=none;curved=1;rounded=0;orthogonalLoop=1;jettySize=auto;html=1;entryX=0;entryY=0.5;entryDx=0;entryDy=0;fontSize=12;startSize=8;endSize=8;" parent="1" source="gX8lP8oXlxVexuRxcrJK-14" target="gX8lP8oXlxVexuRxcrJK-3" edge="1">
          <mxGeometry relative="1" as="geometry" />
        </mxCell>
        <mxCell id="gX8lP8oXlxVexuRxcrJK-14" value="" style="ellipse;fillColor=strokeColor;html=1;" parent="1" vertex="1">
          <mxGeometry x="-325" y="-81" width="19" height="19" as="geometry" />
        </mxCell>
        <mxCell id="gX8lP8oXlxVexuRxcrJK-15" value="" style="ellipse;html=1;shape=endState;fillColor=strokeColor;" parent="1" vertex="1">
          <mxGeometry x="-267" y="210" width="23" height="23" as="geometry" />
        </mxCell>
      </root>
    </mxGraphModel>
  </diagram>
</mxfile>
